TITLE ""
FILE "Disc3Track46.mp3" MP3
  TRACK 01 AUDIO
    TITLE "Disc3Track46_01"
    INDEX 01 00:00:00
  TRACK 02 AUDIO
    TITLE "Disc3Track46_02"
    INDEX 01 00:01:08
  TRACK 03 AUDIO
    TITLE "Disc3Track46_03"
    INDEX 01 00:01:69
  TRACK 04 AUDIO
    TITLE "Disc3Track46_04"
    INDEX 01 00:03:13
  TRACK 05 AUDIO
    TITLE "Disc3Track46_05"
    INDEX 01 00:03:52
  TRACK 06 AUDIO
    TITLE "Disc3Track46_06"
    INDEX 01 00:04:65
  TRACK 07 AUDIO
    TITLE "Disc3Track46_07"
    INDEX 01 00:07:44
  TRACK 08 AUDIO
    TITLE "Disc3Track46_08"
    INDEX 01 00:08:57
  TRACK 09 AUDIO
    TITLE "Disc3Track46_09"
    INDEX 01 00:14:20
  TRACK 10 AUDIO
    TITLE "Disc3Track46_10"
    INDEX 01 00:14:50
  TRACK 11 AUDIO
    TITLE "Disc3Track46_11"
    INDEX 01 00:15:69
  TRACK 12 AUDIO
    TITLE "Disc3Track46_12"
    INDEX 01 00:19:51
  TRACK 13 AUDIO
    TITLE "Disc3Track46_13"
    INDEX 01 00:20:68
  TRACK 14 AUDIO
    TITLE "Disc3Track46_14"
    INDEX 01 00:23:13
  TRACK 15 AUDIO
    TITLE "Disc3Track46_15"
    INDEX 01 00:23:47
  TRACK 16 AUDIO
    TITLE "Disc3Track46_16"
    INDEX 01 00:24:73
  TRACK 17 AUDIO
    TITLE "Disc3Track46_17"
    INDEX 01 00:26:66
  TRACK 18 AUDIO
    TITLE "Disc3Track46_18"
    INDEX 01 00:28:20
  TRACK 19 AUDIO
    TITLE "Disc3Track46_19"
    INDEX 01 00:28:58
  TRACK 20 AUDIO
    TITLE "Disc3Track46_20"
    INDEX 01 00:29:73
  TRACK 21 AUDIO
    TITLE "Disc3Track46_21"
    INDEX 01 00:34:62
  TRACK 22 AUDIO
    TITLE "Disc3Track46_22"
    INDEX 01 00:35:73
  TRACK 23 AUDIO
    TITLE "Disc3Track46_23"
    INDEX 01 00:41:39
  TRACK 24 AUDIO
    TITLE "Disc3Track46_24"
    INDEX 01 00:41:70
  TRACK 25 AUDIO
    TITLE "Disc3Track46_25"
    INDEX 01 00:43:08
  TRACK 26 AUDIO
    TITLE "Disc3Track46_26"
    INDEX 01 00:47:47
  TRACK 27 AUDIO
    TITLE "Disc3Track46_27"
    INDEX 01 00:48:58
  TRACK 28 AUDIO
    TITLE "Disc3Track46_28"
    INDEX 01 00:53:09
  TRACK 29 AUDIO
    TITLE "Disc3Track46_29"
    INDEX 01 00:53:40
  TRACK 30 AUDIO
    TITLE "Disc3Track46_30"
    INDEX 01 00:55:00
  TRACK 31 AUDIO
    TITLE "Disc3Track46_31"
    INDEX 01 00:56:30
  TRACK 32 AUDIO
    TITLE "Disc3Track46_32"
    INDEX 01 00:57:65
  TRACK 33 AUDIO
    TITLE "Disc3Track46_33"
    INDEX 01 01:03:11
  TRACK 34 AUDIO
    TITLE "Disc3Track46_34"
    INDEX 01 01:03:44
  TRACK 35 AUDIO
    TITLE "Disc3Track46_35"
    INDEX 01 01:04:59
  TRACK 36 AUDIO
    TITLE "Disc3Track46_36"
    INDEX 01 01:05:65
  TRACK 37 AUDIO
    TITLE "Disc3Track46_37"
    INDEX 01 01:07:05
  TRACK 38 AUDIO
    TITLE "Disc3Track46_38"
    INDEX 01 01:11:22
  TRACK 39 AUDIO
    TITLE "Disc3Track46_39"
    INDEX 01 01:11:53
  TRACK 40 AUDIO
    TITLE "Disc3Track46_40"
    INDEX 01 01:12:57
  TRACK 41 AUDIO
    TITLE "Disc3Track46_41"
    INDEX 01 01:15:53
  TRACK 42 AUDIO
    TITLE "Disc3Track46_42"
    INDEX 01 01:16:55
  TRACK 43 AUDIO
    TITLE "Disc3Track46_43"
    INDEX 01 01:21:15
  TRACK 44 AUDIO
    TITLE "Disc3Track46_44"
    INDEX 01 01:21:46
  TRACK 45 AUDIO
    TITLE "Disc3Track46_45"
    INDEX 01 01:22:53
  TRACK 46 AUDIO
    TITLE "Disc3Track46_46"
    INDEX 01 01:23:64
  TRACK 47 AUDIO
    TITLE "Disc3Track46_47"
    INDEX 01 01:24:72
